<?xml version="1.0" standalone="no"?>
<!DOCTYPE svg PUBLIC "-//W3C//DTD SVG 20010904//EN"
 "http://www.w3.org/TR/2001/REC-SVG-20010904/DTD/svg10.dtd">
<svg version="1.0" xmlns="http://www.w3.org/2000/svg"
 width="256.000000pt" height="256.000000pt" viewBox="0 0 256.000000 256.000000"
 preserveAspectRatio="xMidYMid meet">

<g transform="translate(0.000000,256.000000) scale(0.100000,-0.100000)"
fill="#000000" stroke="none">
<path d="M0 1280 l0 -1280 1280 0 1280 0 0 555 c0 305 -4 555 -8 555 -4 0 -12
-4 -18 -9 -5 -5 -27 -11 -49 -13 -37 -3 -41 -1 -58 35 -29 62 -37 42 -13 -31
41 -118 67 -182 74 -182 10 0 33 -80 27 -91 -7 -11 -65 -12 -81 -1 -6 4 -14
17 -18 30 -7 20 -14 22 -66 22 -56 0 -60 -2 -75 -30 -13 -26 -21 -30 -55 -30
-21 0 -41 4 -44 9 -3 4 6 37 20 72 14 35 23 75 20 89 -2 13 5 46 15 72 23 60
24 55 -3 62 -13 3 -44 12 -70 20 l-47 15 9 -23 c4 -13 10 -44 11 -69 2 -36 -2
-54 -20 -78 l-24 -32 32 -58 c18 -33 29 -63 26 -69 -3 -5 -26 -10 -50 -10 -44
0 -45 1 -77 60 -44 80 -66 81 -70 2 l-3 -57 -45 0 -45 0 -3 123 c-2 76 -7 122
-13 122 -7 0 -9 27 -7 75 l3 75 -30 0 c-30 0 -30 -1 -30 -52 l0 -53 -42 -3
-42 -3 6 -129 c4 -88 3 -134 -5 -143 -14 -16 -78 -21 -87 -7 -4 6 -7 49 -7 96
0 46 -4 84 -9 84 -5 0 -9 23 -9 51 l0 51 -44 -6 c-47 -7 -56 1 -56 50 0 36
-15 29 -45 -22 -24 -41 -30 -45 -53 -39 -76 20 -118 -3 -129 -68 -5 -32 -1
-41 31 -73 37 -37 49 -39 112 -19 17 5 26 0 43 -28 11 -19 21 -39 21 -45 0
-15 -76 -42 -118 -42 -47 1 -79 16 -130 61 -59 51 -76 97 -71 189 1 14 1 44 0
68 -1 36 -4 43 -18 40 -11 -2 -20 -15 -23 -33 -5 -30 -5 -30 -83 -33 -74 -3
-77 -4 -77 -27 0 -23 2 -24 49 -18 28 3 58 2 68 -2 10 -4 32 -8 48 -7 l30 1
-30 -8 c-16 -5 -26 -9 -21 -10 6 0 3 -7 -6 -13 -9 -7 -18 -22 -20 -33 -3 -17
-12 -20 -61 -23 -48 -3 -57 -6 -57 -22 0 -17 9 -20 82 -22 l83 -3 9 -43 c7
-34 6 -46 -5 -53 -8 -5 -68 -8 -134 -7 -120 3 -120 3 -123 28 -2 14 -8 30 -13
36 -5 6 -12 54 -16 106 -5 77 -10 99 -28 122 l-23 29 5 -45 c10 -83 -30 -130
-116 -138 l-56 -5 0 -65 0 -65 -33 -3 c-44 -4 -62 12 -62 59 0 21 -4 41 -10
44 -5 3 -10 44 -10 91 0 68 -3 84 -15 84 -8 0 -15 6 -15 13 0 7 -5 18 -12 25
-9 9 -19 3 -42 -24 l-31 -36 -28 22 c-29 23 -62 23 -62 0 0 -8 21 -22 50 -33
63 -23 105 -62 105 -97 0 -14 5 -31 11 -37 9 -9 7 -20 -8 -45 -38 -66 -134
-87 -207 -45 -59 33 -66 51 -34 83 l26 27 36 -22 c39 -25 79 -25 84 -1 2 11
-21 27 -69 50 -79 38 -109 73 -109 128 0 22 -5 34 -17 38 -10 3 -31 12 -46 20
-16 7 -34 14 -41 14 -23 0 -34 53 -20 98 6 23 9 42 6 42 -3 0 -1 5 6 12 7 7
12 20 12 30 0 9 8 22 17 27 17 10 17 10 1 11 -16 0 -16 3 2 35 11 20 20 42 20
49 0 7 11 30 25 50 14 21 23 41 20 46 -3 4 6 17 20 27 15 11 26 30 27 46 2 16
11 33 22 39 15 8 16 12 5 19 -11 7 -9 10 8 15 14 4 23 14 23 25 0 11 5 19 11
19 5 0 7 5 4 10 -4 6 -3 9 2 8 5 -2 22 9 38 25 16 15 38 27 48 27 11 0 15 4
11 12 -5 8 0 9 14 6 12 -4 22 -3 22 2 0 4 7 11 16 14 10 4 13 2 8 -7 -5 -8 -2
-7 9 2 9 7 17 10 17 6 0 -4 6 -2 13 4 8 6 17 8 20 4 4 -3 7 0 7 7 0 7 3 11 6
7 4 -3 19 0 34 8 19 10 30 11 38 3 7 -7 28 -5 69 8 32 10 61 17 65 16 3 -1 9
5 12 13 3 8 2 14 -2 13 -10 -3 -72 31 -72 40 0 4 -13 15 -29 25 -16 9 -31 27
-35 40 -3 13 -17 27 -33 33 l-27 9 29 28 c17 15 39 27 50 26 33 -2 41 1 26 10
-12 8 -8 11 15 16 99 21 213 60 193 67 -8 3 1 8 19 12 17 4 32 12 32 18 0 6 6
8 14 5 8 -3 17 -3 20 1 4 3 12 7 19 8 46 8 113 26 131 36 34 18 117 35 211 42
23 2 50 8 62 15 30 15 49 14 68 -6 11 -11 19 -13 24 -5 6 11 54 32 72 32 6 0
7 -4 4 -10 -3 -5 -17 -10 -31 -10 -14 0 -22 -4 -19 -10 9 -14 75 -13 75 1 0 8
4 8 14 0 7 -6 22 -9 32 -5 14 4 16 4 5 -4 -11 -8 -10 -12 8 -21 16 -9 21 -9
21 0 0 8 4 8 13 2 19 -16 66 -21 70 -9 3 6 10 -1 16 -16 6 -16 16 -28 22 -28
7 0 9 -9 5 -24 -5 -20 -2 -24 14 -23 11 1 20 5 20 9 0 4 5 8 11 8 5 0 7 -5 3
-11 -5 -9 6 -10 41 -5 33 5 45 4 40 -3 -3 -6 -3 -11 0 -11 11 0 30 25 30 39 0
20 70 42 108 34 18 -3 42 -17 54 -30 16 -17 33 -23 63 -23 25 0 40 -5 41 -12
0 -7 4 -4 9 7 5 11 9 14 9 7 1 -7 5 -11 10 -8 5 3 14 -1 21 -9 7 -8 16 -13 20
-10 5 3 14 -1 22 -8 14 -14 17 -16 48 -24 11 -3 17 -9 14 -14 -3 -5 -1 -9 4
-9 8 0 31 -39 38 -65 2 -5 6 -20 10 -32 7 -25 -13 -32 -32 -13 -18 18 -74 -42
-74 -80 0 -17 -4 -39 -9 -48 -6 -12 -4 -24 9 -39 10 -12 20 -19 24 -16 3 4 6
3 6 0 0 -3 -10 -11 -21 -18 -15 -7 -19 -8 -15 0 5 7 1 9 -8 5 -20 -8 -20 -20
-1 -28 9 -3 12 -12 8 -21 -4 -12 -1 -16 12 -13 10 2 20 -4 22 -12 4 -13 3 -13
-6 0 -19 26 -12 2 10 -34 12 -20 25 -36 30 -36 5 0 9 -3 8 -7 -3 -18 14 -52
22 -47 5 3 6 -1 3 -9 -3 -8 2 -17 11 -21 10 -3 15 -13 12 -20 -3 -8 0 -17 8
-20 12 -4 65 -105 65 -122 0 -3 7 -12 15 -20 8 -8 12 -21 9 -28 -3 -8 0 -17 5
-21 6 -3 9 -11 6 -16 -4 -5 -1 -9 4 -9 6 0 11 -16 11 -36 0 -19 3 -33 8 -31 4
3 8 -9 9 -26 4 -51 6 -56 16 -50 5 3 6 -3 3 -15 -4 -11 -2 -23 4 -27 14 -9 14
1069 0 1096 -6 10 -17 19 -25 19 -8 0 -15 7 -15 16 0 28 -61 6 -104 -37 -21
-21 -46 -39 -55 -39 -24 0 -51 36 -51 68 1 40 43 107 67 107 12 0 29 8 40 18
22 19 33 14 33 -17 0 -17 7 -21 34 -23 32 -1 35 1 38 30 2 24 8 33 26 35 19 3
22 9 22 48 l0 44 -1280 0 -1280 -1 0 -1279z m917 1160 c21 -11 34 -20 30 -20
-4 0 -4 -8 2 -17 12 -23 -16 -73 -41 -73 -10 0 -18 -4 -18 -10 0 -6 -10 -5
-27 1 -57 23 -100 22 -133 -2 -24 -18 -35 -21 -48 -13 -28 18 -26 57 4 87 l27
27 24 -22 c23 -21 25 -22 34 -5 6 9 19 17 29 17 11 0 20 7 20 15 0 15 26 34
48 35 6 0 29 -9 49 -20z m467 -1405 c-7 -16 -14 -18 -38 -9 -22 9 -10 24 19
24 18 0 23 -4 19 -15z m-47 -21 c-3 -3 -12 -4 -19 -1 -8 3 -5 6 6 6 11 1 17
-2 13 -5z"/>
<path d="M1380 2370 c0 -5 5 -10 10 -10 6 0 10 5 10 10 0 6 -4 10 -10 10 -5 0
-10 -4 -10 -10z"/>
<path d="M1165 2080 c-3 -5 1 -10 10 -10 9 0 13 5 10 10 -3 6 -8 10 -10 10 -2
0 -7 -4 -10 -10z"/>
<path d="M1802 2003 c-7 -7 -9 -13 -5 -13 5 0 13 -10 18 -22 6 -12 19 -26 30
-32 11 -6 23 -15 26 -19 3 -5 8 -8 10 -7 2 1 12 -2 22 -5 9 -4 24 -5 32 -1 17
6 20 26 4 26 -6 0 -25 11 -41 25 -16 14 -34 23 -39 19 -5 -3 -9 4 -9 14 0 24
-31 34 -48 15z m38 -48 c14 -19 14 -19 -2 -6 -10 7 -18 18 -18 24 0 6 1 8 3 6
1 -2 9 -13 17 -24z"/>
<path d="M1016 1904 c-9 -8 -16 -29 -16 -45 0 -27 2 -29 28 -23 15 3 33 6 39
6 10 1 10 5 1 15 -9 11 -9 19 0 33 9 14 8 19 -4 24 -23 9 -31 7 -48 -10z"/>
<path d="M1944 1095 c-3 -8 -2 -20 2 -27 5 -7 9 -20 9 -28 0 -17 52 -27 67
-12 10 10 -7 63 -25 74 -20 13 -47 9 -53 -7z"/>
<path d="M600 1070 c0 -25 4 -30 24 -30 13 0 29 7 36 15 19 23 4 45 -30 45
-27 0 -30 -3 -30 -30z"/>
<path d="M2316 1008 c-9 -35 -8 -38 14 -38 11 0 20 3 20 8 0 19 -13 52 -20 52
-4 0 -10 -10 -14 -22z"/>
</g>
</svg>
